PathFileType        4      (X/Y/Z)      /Users/FranklinZhao/OpenSimProject/Simulation/Models/Rajapogal_2015/scale_data/transformed_SN001_static.trc         
DataRate	CameraRate	NumFrames	NumMarkers	Units	OrigDataRate	OrigDataStartFrame	OrigNumFrames
200.0	200.0	3	72	mm	200.0	8	14
Frame#	Time	LPSIS			RPSIS			LICR			RICR			LASIS			RASIS			RUA1			RUA2			RUA3			RUA4			RHLE			RHME			RTEMP			RHEAD			LHEAD			LTEMP			RACR			LACR			LUA1			LUA2			LUA3			LUA4			LHLE			LHME			STER			XPRO			C7			T4			T8			T10			LFA1			LFA2			LFA3			LRSP			LUSP			RFA1			RFA2			RFA3			RRSP			RUSP			LTH1			LTH2			LTH3			LTH4			LFLE			LFME			LSK1			LSK2			LSK3			LSK4			LTAM			LFAL			LFCC			LFMT1			LFMT2			LFMT5			RTH1			RTH2			RTH3			RTH4			RFLE			RFME			RSK1			RSK2			RSK3			RSK4			RFAL			RTAM			RFCC			RFMT1			RFMT2			RFMT5			
		X1	Y1	Z1	X2	Y2	Z2	X3	Y3	Z3	X4	Y4	Z4	X5	Y5	Z5	X6	Y6	Z6	X7	Y7	Z7	X8	Y8	Z8	X9	Y9	Z9	X10	Y10	Z10	X11	Y11	Z11	X12	Y12	Z12	X13	Y13	Z13	X14	Y14	Z14	X15	Y15	Z15	X16	Y16	Z16	X17	Y17	Z17	X18	Y18	Z18	X19	Y19	Z19	X20	Y20	Z20	X21	Y21	Z21	X22	Y22	Z22	X23	Y23	Z23	X24	Y24	Z24	X25	Y25	Z25	X26	Y26	Z26	X27	Y27	Z27	X28	Y28	Z28	X29	Y29	Z29	X30	Y30	Z30	X31	Y31	Z31	X32	Y32	Z32	X33	Y33	Z33	X34	Y34	Z34	X35	Y35	Z35	X36	Y36	Z36	X37	Y37	Z37	X38	Y38	Z38	X39	Y39	Z39	X40	Y40	Z40	X41	Y41	Z41	X42	Y42	Z42	X43	Y43	Z43	X44	Y44	Z44	X45	Y45	Z45	X46	Y46	Z46	X47	Y47	Z47	X48	Y48	Z48	X49	Y49	Z49	X50	Y50	Z50	X51	Y51	Z51	X52	Y52	Z52	X53	Y53	Z53	X54	Y54	Z54	X55	Y55	Z55	X56	Y56	Z56	X57	Y57	Z57	X58	Y58	Z58	X59	Y59	Z59	X60	Y60	Z60	X61	Y61	Z61	X62	Y62	Z62	X63	Y63	Z63	X64	Y64	Z64	X65	Y65	Z65	X66	Y66	Z66	X67	Y67	Z67	X68	Y68	Z68	X69	Y69	Z69	X70	Y70	Z70	X71	Y71	Z71	X72	Y72	Z72	
8	0.035	-1604.848266601562	1006.564514160156	276.72851562499966	-1604.3916015625	1009.5712890625001	354.08984374999966	-1585.58984375	1066.193359375	183.8935241699215	-1573.067016601562	1091.363525390625	445.3833007812496	-1413.450927734375	989.2355346679688	185.37197875976526	-1407.055541992188	994.4843139648439	444.39584350585903	-1560.083251953125	1369.80322265625	562.1958618164058	-1498.8876953125	1400.696166992188	592.7647094726558	-1480.655395507812	1346.3220214843752	639.9960327148433	-1538.9208984375	1306.236328125	616.5449829101558	-1500.467651367188	1244.1619873046882	665.290161132812	-1449.446166992188	1218.503662109375	613.9824829101558	-1410.582885742188	1708.076416015625	390.9225158691401	-1368.028442382812	1714.8740234375	353.8391723632807	-1369.52880859375	1712.369750976562	271.96273803710886	-1419.817260742188	1701.09033203125	233.82296752929642	-1533.001831054688	1522.943237304688	480.79986572265574	-1548.317260742188	1526.11767578125	128.5306549072261	-1517.509155273438	1408.538818359375	30.136428833007365	-1566.61962890625	1354.946655273438	52.83818435668901	-1539.955200195312	1290.7666015625	0.7897768616672073	-1491.337158203125	1342.937744140625	-21.311616897583438	-1494.556640625	1249.188110351562	-42.04331970214885	-1458.135864257812	1217.3310546875	11.333866119384366	-1448.480346679688	1455.118896484375	302.08633422851517	-1391.316528320312	1250.201782226562	294.940032958984	-1577.134521484375	1559.820922851562	312.93682861328074	-1635.970336914062	1450.137451171875	307.53463745117136	-1635.952880859375	1314.70166015625	311.13000488281205	-1630.478271484375	1269.677856445312	306.27319335937455	-1447.246459960938	1140.436767578125	-224.25354003906287	-1472.887573242188	1108.141723632812	-201.43711853027378	-1437.34033203125	1107.559814453125	-229.33337402343787	-1389.997436523438	1101.084838867188	-248.35980224609418	-1413.2080078125	1047.661499023438	-210.49238586425818	-1506.470825195312	1120.3779296875002	809.0110473632808	-1487.0615234375	1152.0379638671882	837.323852539062	-1480.616455078125	1118.7993164062502	846.0713500976558	-1449.44580078125	1099.5737304687502	889.982788085937	-1456.798461914062	1056.1861572265623	844.4166870117183	-1489.700439453125	716.0194702148438	123.11426544189419	-1538.835693359375	719.6876220703125	134.81402587890585	-1553.059326171875	612.718017578125	143.3660583496091	-1490.646850585938	613.1970825195312	126.3728561401364	-1534.473388671875	520.2364501953125	142.8026580810544	-1519.39697265625	492.11044311523443	259.1541442871091	-1568.789794921875	350.7546081542969	100.26213073730443	-1627.009033203125	352.7002258300781	122.56311035156223	-1631.099609375	264.8757629394531	127.75704193115206	-1571.974731445312	267.3360595703125	102.70671844482396	-1551.120849609375	85.34194183349614	193.76731872558568	-1607.941162109375	76.62377929687503	133.4251556396482	-1627.210693359375	36.59690475463871	188.4129333496092	-1421.721923828125	30.250404357910185	131.69020080566392	-1433.397583007812	31.137914657592788	93.66847991943342	-1491.874389648438	23.51816558837892	58.671039581298636	-1513.99072265625	748.5239257812501	499.5875244140622	-1457.809936523438	727.6441040039064	497.7508239746091	-1460.480712890625	640.9870605468751	489.61795043945284	-1524.7431640625	648.2725830078126	489.4725036621091	-1525.113037109375	536.3127441406251	480.5598754882809	-1520.036987304688	500.8048400878907	361.99954223632784	-1590.988647460938	366.3238220214845	512.1457519531247	-1534.481567382812	383.5120239257813	518.5795898437497	-1533.415161132812	274.352752685547	513.768859863281	-1597.451538085938	283.563201904297	511.45932006835915	-1594.142211914062	74.07434844970712	488.00531005859364	-1550.378784179688	87.41112518310554	414.74188232421864	-1623.569091796875	42.78585815429696	439.9516296386717	-1422.923583984375	30.118438720703207	454.88836669921864	-1421.871826171875	30.877193450927823	499.87573242187483	-1468.192504882812	21.13862228393565	547.1471557617185	
9	0.04	-1604.885131835938	1006.526916503906	276.70941162109347	-1604.44384765625	1009.5574340820311	354.06347656249966	-1585.587646484375	1066.177612304688	183.8823547363277	-1573.11669921875	1091.380737304688	445.3892211914058	-1413.465454101562	989.2282104492188	185.39677429199185	-1407.070678710938	994.4877319335939	444.3873596191403	-1560.136474609375	1369.811401367188	562.2060546874995	-1498.912963867188	1400.711791992188	592.7736816406245	-1480.714477539062	1346.2983398437502	639.9821166992183	-1538.9638671875	1306.257690429688	616.5329589843745	-1500.488403320312	1244.1531982421882	665.286499023437	-1449.524169921875	1218.462890625	613.9919433593745	-1410.581909179688	1708.082153320312	390.9442749023433	-1368.100952148438	1714.872436523438	353.8548889160151	-1369.513427734375	1712.39794921875	271.9619445800776	-1419.798583984375	1701.095458984375	233.8413238525386	-1533.05908203125	1522.946899414062	480.7879333496089	-1548.31103515625	1526.122680664062	128.50106811523392	-1517.540649414062	1408.519775390625	30.126802444457567	-1566.69287109375	1354.957275390625	52.808727264403856	-1539.968017578125	1290.789672851562	0.7673676609988723	-1491.3818359375	1342.978881835938	-21.315721511841247	-1494.577026367188	1249.142944335938	-42.05504608154338	-1458.117431640625	1217.353759765625	11.278119087218837	-1448.47998046875	1455.059326171875	302.0971374511714	-1391.300415039062	1250.169555664062	294.9486083984371	-1577.16845703125	1559.830078125	312.91888427734335	-1635.992553710938	1450.155151367188	307.53329467773386	-1635.963500976562	1314.73291015625	311.10095214843705	-1630.466430664062	1269.690185546875	306.26184082031205	-1447.1689453125	1140.546630859375	-224.31398010253946	-1472.77978515625	1108.236083984375	-201.56103515625037	-1437.25341796875	1107.733520507812	-229.40231323242227	-1389.864379882812	1101.177490234375	-248.36906433105506	-1413.138793945312	1047.74951171875	-210.57803344726597	-1506.486083984375	1120.3835449218752	809.1040649414058	-1487.056030273438	1152.0817871093752	837.3891601562495	-1480.5693359375	1118.8049316406252	846.102661132812	-1449.429931640625	1099.6239013671882	890.0109252929683	-1456.808837890625	1056.1835937500002	844.4533081054683	-1489.879760742188	715.7177734375	123.64496612548798	-1538.887817382812	719.5667724609375	134.95079040527307	-1553.058837890625	612.7221069335938	143.3682708740231	-1490.629760742188	613.2006225585938	126.3336639404294	-1534.483276367188	520.2662963867188	142.79687499999972	-1519.380737304688	492.13983154296886	259.16238403320284	-1568.803955078125	350.7725524902344	100.25868225097634	-1627.004638671875	352.6893310546875	122.58699798583953	-1631.088623046875	264.877685546875	127.72050476074196	-1571.967041015625	267.321044921875	102.70709228515595	-1551.072875976562	85.33165740966801	193.77117919921858	-1608.045043945312	76.62429809570315	133.3566131591795	-1627.20068359375	36.56419754028324	188.3908081054686	-1421.710327148438	30.220136642456076	131.65583801269514	-1433.383911132812	31.1398277282715	93.66465759277327	-1491.865600585938	23.54712867736817	58.66974258422833	-1514.003662109375	748.5267944335939	499.6210632324216	-1457.838623046875	727.6593017578126	497.7272949218747	-1460.53466796875	640.9943237304689	489.61953735351534	-1524.755981445312	648.3040771484376	489.4932861328122	-1525.083251953125	536.3270874023439	480.5715942382809	-1520.024536132812	500.74084472656256	362.0380554199216	-1590.982666015625	366.2994995117189	512.1336669921872	-1534.4912109375	383.5164184570313	518.5999145507809	-1533.420776367188	274.3056030273439	513.7182617187498	-1597.470458984375	283.6003417968751	511.5063781738279	-1594.134155273438	74.08593750000009	487.9692077636717	-1550.297973632812	87.4872131347657	414.98669433593733	-1623.569458007812	42.71929931640633	439.8487243652342	-1422.888305664062	30.071250915527425	454.95083618164045	-1421.858276367188	30.890254974365323	499.86572265624983	-1468.199462890625	21.11144256591807	547.1515502929685	
10	0.045	-1604.817626953125	1006.604858398438	276.68548583984347	-1604.419189453125	1009.5510864257811	354.08325195312466	-1585.576293945312	1066.233154296875	183.90864562988241	-1573.109985351562	1091.421508789062	445.3877563476558	-1413.471069335938	989.2418823242188	185.38732910156216	-1407.077270507812	994.4689941406251	444.3496398925778	-1560.163696289062	1369.865234375	562.2263793945308	-1498.943481445312	1400.700073242188	592.773559570312	-1480.723999023438	1346.3056640625002	640.0104980468745	-1538.968017578125	1306.279418945312	616.5861816406245	-1500.53125	1244.1773681640623	665.3305053710933	-1449.5751953125	1218.469604492188	613.9840698242183	-1410.641357421875	1708.066040039062	391.0322570800776	-1368.109741210938	1714.872192382812	353.9118652343745	-1369.55810546875	1712.384643554688	272.05770874023386	-1419.841918945312	1701.113525390625	233.8574371337886	-1533.05078125	1522.977294921875	480.81872558593705	-1548.34228515625	1526.148803710938	128.5532531738276	-1517.525268554688	1408.545776367188	30.122144699096236	-1566.6689453125	1355.009155273438	52.79172515869097	-1540.022216796875	1290.833374023438	0.745097339152864	-1491.376098632812	1343.001342773438	-21.306819915771907	-1494.587036132812	1249.27001953125	-42.069435119629325	-1458.153198242188	1217.39404296875	11.256000518798427	-1448.499877929688	1455.040771484375	302.1082458496089	-1391.321899414062	1250.16259765625	294.9398498535152	-1577.169921875	1559.868408203125	312.93389892578074	-1636.029663085938	1450.172241210938	307.5121154785151	-1635.951416015625	1314.730102539062	311.1065368652339	-1630.508666992188	1269.71044921875	306.26037597656205	-1447.075805664062	1140.641967773438	-224.36882019043006	-1472.689453125	1108.352783203125	-201.68263244628946	-1437.16162109375	1107.847900390625	-229.48176574707068	-1389.739501953125	1101.261962890625	-248.42691040039097	-1413.09521484375	1047.934326171875	-210.67709350585977	-1506.487182617188	1120.4370117187502	809.1409301757808	-1487.042358398438	1152.1364746093752	837.4207153320308	-1480.568481445312	1118.8566894531252	846.1543579101558	-1449.418701171875	1099.6473388671882	890.0192871093745	-1456.785522460938	1056.2233886718752	844.5011596679683	-1489.699584960938	715.9996948242188	123.13830566406219	-1538.80029296875	719.7162475585938	134.80032348632776	-1553.04052734375	612.7293090820312	143.36198425292937	-1490.602416992188	613.2313842773438	126.3544921874997	-1534.447143554688	520.2530517578125	142.7859039306638	-1519.425537109375	492.10482788085943	259.14443969726534	-1568.768432617188	350.7677917480469	100.22447967529273	-1626.999755859375	352.7198791503906	122.54596710205053	-1631.106323242188	264.8851623535156	127.72390747070285	-1571.959838867188	267.3392333984375	102.68815612792946	-1551.103759765625	85.30124664306645	193.76376342773418	-1608.056030273438	76.6376647949219	133.3363342285154	-1627.190063476562	36.58922195434574	188.4080657958982	-1421.721557617188	30.216073989868185	131.69400024414043	-1433.380126953125	31.142967224121108	93.66131591796858	-1491.867919921875	23.51907920837403	58.659374237060355	-1514.003540039062	748.5332031250001	499.6639099121091	-1457.850341796875	727.6268920898439	497.7198486328122	-1460.4990234375	640.9981079101564	489.62014770507784	-1524.778198242188	648.2894287109376	489.4797363281247	-1525.080688476562	536.3225708007814	480.56594848632784	-1520.001953125	500.7805480957032	361.9841308593747	-1590.945922851562	366.29177856445324	512.1805419921872	-1534.458740234375	383.4942321777345	518.6148681640622	-1533.4296875	274.3255004882813	513.7802124023435	-1597.50341796875	283.6333923339845	511.5063781738279	-1594.137451171875	74.08409881591805	487.99169921874983	-1550.304809570312	87.50377655029304	414.9809265136717	-1623.52392578125	42.727439880371165	439.91137695312483	-1422.928466796875	30.108995437622156	454.89990234374983	-1421.86767578125	30.897512435913182	499.86535644531233	-1468.171020507812	21.12273597717295	547.1744995117185	
